<svg width="70" height="70" viewBox="0 0 70 70" fill="none" xmlns="http://www.w3.org/2000/svg">
<g clip-path="url(#clip0_4022_32)">
<path d="M70 35C70 15.6692 54.3308 0 35 0C15.6692 0 0 15.6692 0 35C0 54.3308 15.6692 70 35 70C54.3308 70 70 54.3308 70 35ZM5.46875 35C5.46875 18.6899 18.6899 5.46875 35 5.46875C51.3101 5.46875 64.5312 18.6899 64.5312 35C64.5312 51.3101 51.3101 64.5312 35 64.5312C18.6899 64.5312 5.46875 51.3101 5.46875 35Z" fill="#157698"/>
<path d="M50.3125 39.1016L35 23.7891L19.6875 39.1016L24.0625 43.4766L35 32.5391L45.9375 43.4766L50.3125 39.1016Z" fill="#157698"/>
</g>
<defs>
<clipPath id="clip0_4022_32">
<rect width="70" height="70" fill="white"/>
</clipPath>
</defs>
</svg>
