<svg width="36" height="36" viewBox="0 0 36 36" fill="none" xmlns="http://www.w3.org/2000/svg">
<g clip-path="url(#clip0_3977_89)">
<path d="M18 36C27.9411 36 36 27.9411 36 18C36 8.05888 27.9411 0 18 0C8.05888 0 0 8.05888 0 18C0 27.9411 8.05888 36 18 36Z" fill="#157698"/>
<path d="M12.2457 29.7921V26.5606C12.2457 26.0504 11.8488 25.6536 11.3386 25.6536H8.07874V7.11497C8.07874 6.60474 8.47559 6.20789 8.98582 6.20789H26.9858C27.4961 6.20789 27.8929 6.60474 27.8929 7.11497V28.8851C27.8929 29.3953 27.4961 29.7921 26.9858 29.7921H12.2457V29.7921Z" fill="white"/>
<path d="M21.8834 20.3245H20.4661V26.3339L21.8834 24.9166L23.3291 26.3339V20.3245H21.8834Z" fill="#F1543F"/>
<path d="M12.2457 29.7922L8.07874 25.6252H11.3102C11.8205 25.6252 12.2173 26.0221 12.2173 26.5323V29.7922H12.2457V29.7922Z" fill="#E6E9EE"/>
<path d="M26.1354 8.56067H9.86456V9.75122H26.1354V8.56067Z" fill="#E6E9EE"/>
<path d="M26.1354 11.1969H9.86456V12.3875H26.1354V11.1969Z" fill="#E6E9EE"/>
<path d="M26.1354 13.8331H9.86456V15.0237H26.1354V13.8331Z" fill="#E6E9EE"/>
<path d="M16.8945 16.441H9.86456V17.6316H16.8945V16.441Z" fill="#E6E9EE"/>
<path d="M16.8945 19.0205H9.86456V20.2111H16.8945V19.0205Z" fill="#E6E9EE"/>
<path d="M16.8945 21.5717H9.86456V22.7622H16.8945V21.5717Z" fill="#E6E9EE"/>
<path d="M24.9732 20.0126C25.1716 19.8141 25.1716 19.5307 24.9732 19.3322C24.8315 19.1905 24.8031 18.9921 24.8598 18.822C24.9732 18.5669 24.8315 18.2834 24.6047 18.1984C24.4346 18.1133 24.3213 17.9433 24.3213 17.7448C24.3213 17.4897 24.0945 17.2629 23.8394 17.2629C23.6409 17.2629 23.4709 17.1496 23.3858 16.9795C23.2724 16.7244 23.0173 16.611 22.7622 16.7244C22.5921 16.8094 22.3653 16.7527 22.252 16.611C22.0535 16.4126 21.7701 16.4126 21.5716 16.611C21.4299 16.7527 21.2315 16.7811 21.0614 16.7244C20.8063 16.611 20.5228 16.7527 20.4378 16.9795C20.3527 17.1496 20.1827 17.2629 19.9842 17.2629C19.7291 17.2629 19.5024 17.4897 19.5024 17.7448C19.5024 17.9433 19.389 18.1133 19.2189 18.1984C18.9638 18.3118 18.8504 18.5669 18.9638 18.822C19.0488 18.9921 18.9921 19.2189 18.8504 19.3322C18.652 19.5307 18.652 19.8141 18.8504 20.0126C18.9921 20.1543 19.0205 20.3527 18.9638 20.5228C18.8504 20.7779 18.9921 21.0614 19.2189 21.1464C19.389 21.2314 19.5024 21.4015 19.5024 21.6C19.5024 21.8551 19.7291 22.0818 19.9842 22.0818C20.1827 22.0818 20.3527 22.1952 20.4378 22.3653C20.5512 22.6204 20.8063 22.7338 21.0614 22.6204C21.2315 22.5354 21.4583 22.5921 21.5716 22.7338C21.7701 22.9322 22.0535 22.9322 22.252 22.7338C22.3937 22.5921 22.5921 22.5637 22.7622 22.6204C23.0173 22.7338 23.3008 22.5921 23.3858 22.3653C23.4709 22.1952 23.6409 22.0818 23.8394 22.0818C24.0945 22.0818 24.3213 21.8551 24.3213 21.6C24.3213 21.4015 24.4346 21.2314 24.6047 21.1464C24.8598 21.033 24.9732 20.7779 24.8598 20.5228C24.8031 20.3527 24.8315 20.1543 24.9732 20.0126Z" fill="#157698"/>
<path d="M21.8835 22.1102C23.2298 22.1102 24.3213 21.0188 24.3213 19.6724C24.3213 18.3261 23.2298 17.2346 21.8835 17.2346C20.5371 17.2346 19.4457 18.3261 19.4457 19.6724C19.4457 21.0188 20.5371 22.1102 21.8835 22.1102Z" fill="#FFD05B"/>
<path d="M21.8835 21.7985C23.0576 21.7985 24.0094 20.8466 24.0094 19.6725C24.0094 18.4983 23.0576 17.5465 21.8835 17.5465C20.7093 17.5465 19.7575 18.4983 19.7575 19.6725C19.7575 20.8466 20.7093 21.7985 21.8835 21.7985Z" fill="#157698"/>
</g>
<defs>
<clipPath id="clip0_3977_89">
<rect width="36" height="36" fill="white"/>
</clipPath>
</defs>
</svg>
