<svg width="36" height="36" viewBox="0 0 36 36" fill="none" xmlns="http://www.w3.org/2000/svg">
<path d="M4.90909 4.5C4.90909 4.5 8.66045 0.4635 13.0909 0L13.4902 1.098C9.48436 2.44575 7.64673 4.37738 5.72727 6.75C9.03682 4.42687 12.3046 2.25 18 2.25C23.6954 2.25 26.9632 4.42687 30.2727 6.75C28.3533 4.37738 26.1671 2.23312 22.5098 1.098L22.9091 0C27.5572 0.604125 31.0909 4.5 31.0909 4.5C31.0909 4.5 35.2808 12.8531 36 29.25C31.7765 35.9471 25.3636 36 25.3636 36L24.0226 33.5419C26.2988 32.454 28.8695 30.5111 31.0909 27C28.4416 29.7563 24.4432 32.625 18 32.625C11.5568 32.625 7.55836 29.7563 4.90909 27C7.13045 30.5111 9.70118 32.454 11.9774 33.5419L10.6364 36C10.6364 36 4.22345 35.9471 2.38419e-07 29.25C0.719182 12.8531 4.90909 4.5 4.90909 4.5ZM23.3182 24.75C24.8997 24.75 26.1818 22.7351 26.1818 20.25C26.1818 17.7649 24.8997 15.75 23.3182 15.75C21.7366 15.75 20.4545 17.7649 20.4545 20.25C20.4545 22.7351 21.7366 24.75 23.3182 24.75ZM12.6818 24.75C14.2634 24.75 15.5455 22.7351 15.5455 20.25C15.5455 17.7649 14.2634 15.75 12.6818 15.75C11.1003 15.75 9.81818 17.7649 9.81818 20.25C9.81818 22.7351 11.1003 24.75 12.6818 24.75Z" fill="#157698"/>
</svg>
