<svg width="63" height="65" viewBox="0 0 63 65" fill="none" xmlns="http://www.w3.org/2000/svg">
<g clip-path="url(#clip0_3940_229)">
<path d="M31.2446 0.804277C14.1148 0.804277 0.236938 15.3622 0.236938 33.3043C0.236938 47.6713 9.12063 59.8487 21.4326 64.1447C22.9888 64.4515 23.5508 63.446 23.5508 62.5766C23.5508 61.8047 23.5334 59.7633 23.5217 57.0536C14.8919 59.0118 13.0741 52.6844 13.0741 52.6844C11.6613 48.9388 9.62257 47.9333 9.62257 47.9333C6.81637 45.9244 9.84543 45.9671 9.84543 45.9671C12.954 46.1885 14.5896 49.3085 14.5896 49.3085C17.3551 54.281 21.8454 52.8429 23.6225 52.006C23.8938 49.9118 24.702 48.4716 25.5818 47.6693C18.6981 46.8547 11.4598 44.0618 11.4598 31.6082C11.4598 28.0515 12.6613 25.1549 14.6477 22.8799C14.3047 22.0654 13.2543 18.7544 14.921 14.2776C14.921 14.2776 17.516 13.4102 23.4481 17.6108C25.9307 16.8897 28.5663 16.5302 31.2 16.5119C33.8357 16.5302 36.4694 16.8918 38.9519 17.6108C44.8492 13.4102 47.4422 14.2776 47.4422 14.2776C49.1069 18.7544 48.0565 22.0633 47.7542 22.8799C49.7213 25.1549 50.9228 28.0535 50.9228 31.6082C50.9228 44.0902 43.6748 46.8426 36.7833 47.6368C37.8608 48.6097 38.8705 50.6105 38.8705 53.6472C38.8705 57.9941 38.8318 61.496 38.8318 62.5543C38.8318 63.3993 39.3744 64.4149 40.9713 64.0879C53.3744 59.8365 62.2484 47.649 62.2484 33.3022C62.2484 15.3602 48.3705 0.802246 31.2407 0.802246L31.2446 0.804277Z" fill="#157698"/>
</g>
<defs>
<clipPath id="clip0_3940_229">
<rect width="62.0153" height="65" fill="white" transform="translate(0.236938)"/>
</clipPath>
</defs>
</svg>
