<svg width="36" height="36" viewBox="0 0 36 36" fill="none" xmlns="http://www.w3.org/2000/svg">
<path d="M17.9999 0C27.9416 0 36 8.0595 36 18.0001C36 27.9406 27.9416 36 17.9999 36C8.05826 36 0 27.9405 0 18.0001C0 8.05962 8.05838 0 17.9999 0Z" fill="#0E76A8"/>
<path d="M10.143 24.732H13.5135V13.4977H10.143V24.732ZM23.274 13.1086C21.6382 13.1086 20.1746 13.706 19.1363 15.0245V13.4608H15.7534V24.7321H19.1363V18.6369C19.1363 17.3487 20.3165 16.0921 21.7947 16.0921C23.2729 16.0921 23.6374 17.3487 23.6374 18.6054V24.731H27.008V18.3545C27.0078 13.9253 24.9109 13.1086 23.274 13.1086ZM11.8125 12.375C12.744 12.375 13.5 11.619 13.5 10.6875C13.5 9.75597 12.744 9.00006 11.8125 9.00006C10.8809 9.00006 10.1249 9.7561 10.1249 10.6876C10.1249 11.6191 10.8809 12.375 11.8125 12.375Z" fill="white"/>
</svg>
