<svg width="34" height="26" viewBox="0 0 34 26" fill="none" xmlns="http://www.w3.org/2000/svg">
<path d="M33.9987 1.51846C33.9981 1.48848 33.9964 1.4587 33.9941 1.42882C33.9925 1.40729 33.991 1.38586 33.9886 1.36453C33.9853 1.3362 33.9805 1.30797 33.9756 1.27964C33.9717 1.25728 33.968 1.23482 33.9631 1.21277C33.9573 1.18681 33.9503 1.16115 33.9432 1.13539C33.9367 1.1118 33.9305 1.08821 33.9228 1.06502C33.9152 1.04164 33.9061 1.01856 33.8974 0.995376C33.888 0.970751 33.8786 0.946024 33.868 0.922018C33.8587 0.901103 33.8483 0.8806 33.8381 0.859891C33.8256 0.834442 33.8128 0.8092 33.7988 0.784679C33.7882 0.765824 33.7764 0.747382 33.7649 0.728836C33.7491 0.703697 33.733 0.678867 33.7159 0.654655C33.7106 0.647133 33.7064 0.6392 33.7008 0.631679C33.6929 0.620758 33.6838 0.611279 33.6756 0.600667C33.6585 0.578721 33.641 0.557085 33.6229 0.536067C33.6063 0.5168 33.5893 0.498255 33.572 0.480018C33.5555 0.462709 33.5387 0.445812 33.5214 0.429327C33.5013 0.410061 33.4808 0.391412 33.4598 0.373382C33.4434 0.359267 33.4266 0.345563 33.4096 0.332273C33.3872 0.314551 33.3645 0.297449 33.3412 0.281067C33.3233 0.268394 33.3049 0.256442 33.2864 0.244594C33.2635 0.229964 33.2405 0.215746 33.217 0.202352C33.1958 0.1904 33.1744 0.179273 33.1528 0.168248C33.1309 0.157121 33.109 0.146406 33.0866 0.136309C33.0622 0.125388 33.0374 0.115291 33.0122 0.105606C32.9914 0.0975699 32.9707 0.0898426 32.9496 0.0827335C32.9229 0.0736668 32.8959 0.0656303 32.8686 0.058006C32.8475 0.0521333 32.8264 0.0465696 32.8051 0.0416242C32.7783 0.0353393 32.7513 0.0299818 32.7241 0.0251393C32.7004 0.0209151 32.6767 0.0173091 32.6528 0.0142182C32.6279 0.0110243 32.6031 0.00834548 32.5779 0.00638791C32.5501 0.00412124 32.5223 0.00288484 32.4944 0.00216363C32.481 0.00164848 32.468 0 32.4545 0H1.54545C1.53185 0 1.51867 0.00175156 1.50507 0.00206065C1.47745 0.00278187 1.44995 0.0041213 1.42254 0.00628493C1.39699 0.00834554 1.37185 0.0110243 1.34671 0.0142182C1.32312 0.0173091 1.29983 0.0208122 1.27644 0.0249334C1.24883 0.0297758 1.22142 0.0353393 1.19422 0.0416242C1.17331 0.0464666 1.1527 0.0519271 1.1321 0.0575937C1.10438 0.065321 1.07687 0.0734607 1.04978 0.0827335C1.02917 0.0896365 1.00887 0.0973637 0.988576 0.105091C0.963024 0.114982 0.937679 0.125182 0.912848 0.136412C0.891006 0.1462 0.869473 0.156812 0.848042 0.16763C0.825994 0.17886 0.804048 0.190297 0.782618 0.202455C0.759539 0.215539 0.736976 0.229552 0.714412 0.243873C0.695455 0.25603 0.6766 0.268291 0.658261 0.281273C0.635388 0.297345 0.61303 0.314139 0.591085 0.331551C0.573673 0.345254 0.55657 0.359164 0.539776 0.373588C0.519067 0.391309 0.498873 0.409751 0.478988 0.428812C0.461473 0.445606 0.444473 0.462709 0.427679 0.480224C0.410473 0.498254 0.393679 0.516697 0.377297 0.535758C0.359061 0.556879 0.341545 0.578618 0.324442 0.600667C0.316303 0.611279 0.307236 0.620758 0.299303 0.631576C0.293842 0.639097 0.289515 0.646927 0.284158 0.654552C0.267055 0.678764 0.250982 0.703594 0.235321 0.728734C0.223679 0.747279 0.212036 0.765721 0.201321 0.784576C0.187412 0.8092 0.174636 0.834443 0.162067 0.859788C0.151867 0.880497 0.141358 0.901 0.132085 0.921915C0.121473 0.945921 0.112097 0.970648 0.102721 0.995273C0.0938606 1.01845 0.084897 1.04143 0.0772727 1.06492C0.0696485 1.0881 0.0633636 1.1117 0.0568727 1.13529C0.0498667 1.16105 0.0427576 1.1867 0.0369879 1.21267C0.0321455 1.23472 0.0284364 1.25718 0.0245212 1.27953C0.0195758 1.30776 0.0148364 1.33599 0.0115394 1.36443C0.00906667 1.38565 0.00762424 1.40719 0.00597576 1.42872C0.00370909 1.4586 0.00195758 1.48848 0.00144242 1.51836C0.00123636 1.52742 0 1.53628 0 1.54545V24.2121C0 25.0656 0.691951 25.7576 1.54545 25.7576H32.4545C33.308 25.7576 34 25.0656 34 24.2121V1.54545C34 1.53628 33.9989 1.52742 33.9987 1.51846ZM27.7338 3.09091L17 10.9623L6.2663 3.09091H27.7338ZM3.09091 22.6667V4.59536L16.0861 14.1251C16.3581 14.3246 16.6791 14.4243 17.0001 14.4243C17.321 14.4243 17.6421 14.3246 17.9141 14.1251L30.9091 4.59536V22.6667H3.09091Z" fill="#157698"/>
</svg>
