<svg width="230" height="86" viewBox="0 0 230 86" fill="none" xmlns="http://www.w3.org/2000/svg">
<g clip-path="url(#clip0_3940_231)">
<path d="M114.86 26.5659L125.768 25.8516C126.006 27.7015 126.488 29.1098 127.212 30.0765C128.396 31.6436 130.084 32.4271 132.275 32.4271C133.909 32.4271 135.171 32.0274 136.059 31.228C136.465 30.8961 136.796 30.4735 137.025 29.9911C137.255 29.5087 137.379 28.9788 137.387 28.4403C137.38 27.9239 137.265 27.4154 137.05 26.9502C136.835 26.4851 136.525 26.0747 136.142 25.7478C135.312 24.957 133.355 24.2081 130.27 23.5011C125.241 22.3237 121.655 20.7567 119.511 18.8001C118.468 17.8884 117.635 16.7434 117.074 15.45C116.513 14.1565 116.238 12.7479 116.271 11.3286C116.278 9.32285 116.856 7.36458 117.93 5.70114C119.157 3.82631 120.89 2.37391 122.909 1.52819C125.122 0.515257 128.165 0.00878906 132.038 0.00878906C136.779 0.00878906 140.395 0.929378 142.884 2.77055C145.374 4.61173 146.855 7.53799 147.328 11.5493L136.519 12.2073C136.243 10.4758 135.64 9.2089 134.71 8.40663C133.781 7.60437 132.508 7.20467 130.893 7.20756C129.561 7.20756 128.557 7.50625 127.885 8.09496C127.567 8.34967 127.31 8.67764 127.135 9.05315C126.959 9.42867 126.869 9.84152 126.872 10.2594C126.882 10.5836 126.962 10.9013 127.106 11.1891C127.249 11.4768 127.453 11.7271 127.702 11.9216C128.241 12.4324 129.524 12.9086 131.548 13.3501C136.561 14.4756 140.157 15.6155 142.337 16.7698C144.516 17.9242 146.093 19.3541 147.067 21.0597C148.061 22.7898 148.574 24.7742 148.548 26.791C148.56 29.233 147.874 31.6233 146.577 33.6564C145.228 35.7763 143.308 37.4329 141.059 38.4181C138.694 39.5003 135.714 40.0414 132.121 40.0414C125.811 40.0414 121.441 38.7745 119.009 36.2407C116.578 33.707 115.194 30.482 114.86 26.5659ZM3.20494 39.3921V0.662436H22.3168C25.8604 0.662436 28.5685 0.978437 30.4413 1.61044C32.2859 2.22512 33.8808 3.46536 34.9723 5.13407C36.1604 6.98624 36.7652 9.17882 36.7026 11.4065C36.7507 13.3505 36.2918 15.2716 35.3748 16.9646C34.4949 18.5341 33.2488 19.846 31.7525 20.7783C30.4944 21.5022 29.1368 22.0191 27.7276 22.3107C28.782 22.6346 29.7867 23.1142 30.711 23.7349C31.3979 24.3306 32.0161 25.0075 32.5533 25.7521C33.1576 26.4921 33.6925 27.2908 34.1508 28.1372L39.7026 39.3921H26.7442L20.6198 27.5442C19.8424 26.0118 19.1509 25.0162 18.5451 24.5573C17.7196 23.9605 16.7361 23.6473 15.7318 23.6613H14.7111V39.3921H3.20494ZM14.7111 16.3456H19.5575C20.5832 16.2657 21.5998 16.089 22.5948 15.8175C23.3384 15.6687 24.0016 15.2347 24.4538 14.6011C24.9319 13.9611 25.1866 13.1702 25.1757 12.3588C25.2069 11.8202 25.1204 11.2812 24.9228 10.7825C24.7251 10.2838 24.4214 9.83851 24.0347 9.48017C23.2767 8.81065 21.8507 8.47589 19.7567 8.47589H14.7111V16.3456ZM0.603302 72.5333L11.5119 71.8234C11.7498 73.6732 12.2312 75.0815 12.9559 76.0482C14.126 77.6153 15.8176 78.3988 18.0306 78.3988C19.6654 78.3988 20.9268 77.9977 21.8148 77.1954C22.2214 76.8635 22.5517 76.4408 22.7815 75.9585C23.0112 75.4761 23.1346 74.9462 23.1426 74.4076C23.1353 73.8914 23.0201 73.383 22.8051 72.918C22.5901 72.453 22.2805 72.0425 21.8978 71.7151C21.0679 70.9244 19.1108 70.177 16.0264 69.4728C10.9974 68.2896 7.411 66.7226 5.26717 64.7718C4.22407 63.8591 3.39119 62.7132 2.83022 61.4191C2.26925 60.125 1.99457 58.7158 2.02653 57.2959C2.03571 55.2904 2.61317 53.3325 3.68627 51.6685C4.91313 49.7937 6.64616 48.3413 8.66548 47.4956C10.8785 46.4826 13.9213 45.9762 17.794 45.9762C22.5354 45.9762 26.1508 46.8968 28.6404 48.7379C31.1301 50.5791 32.6114 53.5054 33.0844 57.5167L22.2961 58.179C22.0195 56.4475 21.4164 55.1792 20.487 54.374C19.5575 53.5689 18.2864 53.1735 16.6737 53.1879C15.3432 53.1879 14.3404 53.4765 13.6654 54.0537C13.3479 54.3084 13.0913 54.6364 12.9156 55.0119C12.74 55.3874 12.6501 55.8002 12.653 56.2181C12.6625 56.5431 12.742 56.8616 12.8856 57.1502C13.0293 57.4387 13.2334 57.6897 13.4829 57.8847C14.0223 58.3955 15.3044 58.8702 17.3293 59.3088C22.3417 60.4343 25.9378 61.5742 28.1176 62.7286C30.2974 63.8829 31.8742 65.3129 32.8479 67.0184C33.841 68.7488 34.3538 70.733 34.3292 72.7497C34.3416 75.1918 33.6554 77.5822 32.3583 79.6152C31.0087 81.735 29.0887 83.3916 26.8396 84.3768C24.4745 85.459 21.4953 86.0001 17.9019 86.0001C11.5922 86.0001 7.22151 84.7332 4.78999 82.1995C2.35848 79.6657 0.962912 76.4436 0.603302 72.5333ZM68.2377 69.4988L78.2874 72.6675C77.7316 75.3272 76.6443 77.8348 75.0965 80.0264C73.6862 81.9629 71.8311 83.4978 69.7024 84.4894C67.5503 85.4908 64.8117 85.9915 61.4867 85.9915C57.4535 85.9915 54.1589 85.3811 51.6029 84.1604C49.0469 82.9397 46.834 80.7883 44.964 77.7062C43.1051 74.627 42.177 70.6863 42.1798 65.8843C42.1798 59.4834 43.8118 54.5616 47.076 51.1188C50.3401 47.6759 54.9598 45.956 60.9348 45.9589C65.6125 45.9589 69.2875 46.9458 71.9596 48.9198C74.6318 50.8937 76.618 53.9238 77.9181 58.0102L67.7937 60.3607C67.556 59.4395 67.1807 58.563 66.6817 57.7635C66.0685 56.8753 65.2622 56.1513 64.329 55.651C63.3618 55.1483 62.2933 54.8945 61.2128 54.9108C58.6153 54.9108 56.625 56.0016 55.2419 58.1833C54.1907 59.8023 53.6665 62.3433 53.6693 65.8063C53.6693 70.0947 54.2945 73.0354 55.5448 74.6284C56.7952 76.2214 58.5503 77.0165 60.8103 77.0136C63.0012 77.0136 64.6609 76.3715 65.7896 75.0873C66.9182 73.8031 67.7342 71.9402 68.2377 69.4988ZM87.1213 46.6298H98.586V60.1703H111.117V46.6298H122.631V85.3421H111.117V69.6936H98.586V85.3551H87.1213V46.6298ZM129.768 66.0098C129.768 59.6955 131.456 54.7752 134.831 51.2486C138.205 47.7221 142.908 45.9617 148.938 45.9675C155.113 45.9675 159.87 47.699 163.212 51.1621C166.554 54.6251 168.229 59.469 168.237 65.6938C168.237 70.2217 167.507 73.9329 166.046 76.8274C164.625 79.6838 162.422 82.0357 159.718 83.5847C156.952 85.195 153.514 86.0001 149.403 86.0001C145.221 86.0001 141.763 85.3046 139.03 83.9137C136.222 82.462 133.898 80.1616 132.362 77.3123C130.63 74.3052 129.766 70.5377 129.768 66.0098ZM141.233 66.0661C141.233 69.9764 141.925 72.7843 143.308 74.4899C144.691 76.1954 146.586 77.0482 148.992 77.0482C151.457 77.0482 153.364 76.2127 154.714 74.5418C156.064 72.8709 156.739 69.8696 156.739 65.538C156.739 61.8931 156.034 59.2295 154.623 57.547C153.212 55.8646 151.301 55.0248 148.889 55.0277C147.84 54.9883 146.796 55.1968 145.835 55.6376C144.875 56.0784 144.022 56.74 143.341 57.573C141.938 59.3045 141.236 62.1355 141.233 66.0661Z" fill="#157698"/>
<path d="M163.374 66.0096C163.374 59.6953 165.061 54.7749 168.436 51.2484C171.811 47.7219 176.514 45.9615 182.544 45.9673C188.724 45.9673 193.483 47.6988 196.822 51.1618C200.161 54.6249 201.83 59.4702 201.83 65.6979C201.83 70.2258 201.101 73.937 199.643 76.8315C198.221 79.687 196.019 82.0385 193.316 83.5888C190.549 85.1991 187.111 86.0042 183 86.0042C178.815 86.0042 175.357 85.3088 172.627 83.9178C169.819 82.465 167.494 80.165 165.955 77.3164C164.234 74.3064 163.374 70.5375 163.374 66.0096ZM174.843 66.0659C174.843 69.9762 175.534 72.7841 176.917 74.4897C178.3 76.1952 180.198 77.0494 182.61 77.0523C185.075 77.0523 186.982 76.2169 188.332 74.5459C189.682 72.875 190.357 69.8737 190.357 65.5421C190.357 61.8972 189.653 59.2336 188.245 57.5511C186.837 55.8687 184.926 55.0289 182.511 55.0318C181.46 54.9896 180.414 55.1963 179.451 55.6364C178.488 56.0765 177.633 56.7385 176.951 57.5728C175.543 59.3043 174.84 62.1353 174.843 66.0659Z" fill="#157698"/>
<path d="M200.635 46.6296H212.104V75.81H230V85.3333H200.635V46.6296Z" fill="#157698"/>
</g>
<defs>
<clipPath id="clip0_3940_231">
<rect width="229.397" height="86" fill="white" transform="translate(0.603302)"/>
</clipPath>
</defs>
</svg>
