<svg width="36" height="36" viewBox="0 0 36 36" fill="none" xmlns="http://www.w3.org/2000/svg">
<g clip-path="url(#clip0_3938_64)">
<rect width="36" height="36" fill="white"/>
<path d="M18 36C27.9411 36 36 27.9411 36 18C36 8.05887 27.9411 0 18 0C8.05887 0 0 8.05887 0 18C0 27.9411 8.05887 36 18 36Z" fill="#157698"/>
<path d="M2.39998 18C2.39998 8.46225 9.81851 0.658406 19.2 0.0407109C18.8033 0.014625 18.4034 0 18 0C8.05887 0 0 8.05887 0 18C0 27.9411 8.05887 36 18 36C18.4034 36 18.8032 35.9854 19.2 35.9593C9.81858 35.3416 2.39998 27.5377 2.39998 18Z" fill="#3298BA"/>
<path d="M26.7372 7.66787C26.5624 7.54904 26.3381 7.53104 26.1467 7.62013L6.80462 16.6242C6.4648 16.7825 6.25007 17.1285 6.25858 17.5032C6.2668 17.8706 6.4892 18.2007 6.82565 18.348L24.6578 26.1145C25.2532 26.3851 25.9543 25.9591 25.9926 25.3092L26.999 8.19929C27.0113 7.9885 26.912 7.78656 26.7372 7.66787Z" fill="#E5E5E5"/>
<path d="M12.0678 20.6312L13.273 28.6875L26.6603 7.62415L12.0678 20.6312Z" fill="#CCCCCC"/>
<path d="M26.1468 7.6201L6.80464 16.6242C6.47157 16.7792 6.25438 17.1249 6.25839 17.4922C6.26246 17.8601 6.48873 18.2005 6.8256 18.348L12.0679 20.6311L26.6603 7.62411C26.4995 7.54662 26.3112 7.5436 26.1468 7.6201Z" fill="white"/>
<path d="M14.8653 21.8496L13.273 28.6875L26.6603 7.62415L14.8653 21.8496Z" fill="#E5E5E5"/>
<path d="M26.7372 7.66788C26.7126 7.65108 26.6866 7.6368 26.6602 7.62415L14.8653 21.8496L24.6577 26.1145C25.2532 26.3851 25.9542 25.9591 25.9925 25.3092L26.9989 8.1993C27.0113 7.9885 26.912 7.78657 26.7372 7.66788Z" fill="white"/>
</g>
<defs>
<clipPath id="clip0_3938_64">
<rect width="36" height="36" fill="white"/>
</clipPath>
</defs>
</svg>
